<svg xmlns="http://www.w3.org/2000/svg" xmlns:xlink="http://www.w3.org/1999/xlink" version="1.1" id="Layer_1" x="0px" y="0px" viewBox="0 0 512 512" style="enable-background:new 0 0 512 512;" xml:space="preserve">
<g>
	<path style="fill:#8AD5DD;" d="M68.432,346.264v-179.72c-3.072,1.296-6.448,2.016-10,2.016s-6.928-0.72-10-2.016v179.728   c3.072-1.296,6.456-2.016,10-2.016C61.984,344.248,65.36,344.968,68.432,346.264z"/>
    <path style="fill:#8AD5DD;" d="M241.112,465.296L83.744,374.44c-1.216,6.984-5.192,13.008-10.824,16.848l157.72,91.056   C231.72,475.32,235.568,469.248,241.112,465.296z"/>
    <path style="fill:#8AD5DD;" d="M268.672,48.04l159.416,92.04c0.76-7.112,4.352-13.312,9.704-17.488L280.896,32.008   C279.168,38.896,274.688,44.616,268.672,48.04z"/>
    <path style="fill:#8AD5DD;" d="M428.256,374.44l-157.368,90.856c5.544,3.952,9.392,10.024,10.472,17.048l157.72-91.064   C433.448,387.448,429.48,381.424,428.256,374.44z"/>
    <path style="fill:#8AD5DD;" d="M83.912,140.08l159.416-92.032c-6.016-3.432-10.496-9.152-12.232-16.032L74.208,122.592   C79.56,126.768,83.152,132.968,83.912,140.08z"/>
    <path style="fill:#8AD5DD;" d="M453.568,168.56c-3.544,0-6.928-0.72-10-2.016v179.72c3.072-1.296,6.456-2.016,10-2.016   s6.928,0.72,10,2.016v-179.72C460.488,167.84,457.112,168.56,453.568,168.56z"/>
    <path style="fill:#8AD5DD;" d="M364.088,199.52l69.608-40.512c-1.688-2.072-3.096-4.36-4.08-6.896l-69.536,40.472L260,134.808   V51.096c-1.312,0.208-2.632,0.4-4,0.4s-2.688-0.2-4-0.4v83.712l-100.072,57.776l-69.544-40.472   c-0.984,2.536-2.392,4.824-4.08,6.896l69.608,40.512v115.544l-69.368,39.032c1.656,2.088,3,4.408,3.952,6.952L151.888,322   L252,379.8v81.096c1.312-0.208,2.632-0.4,4-0.4s2.688,0.2,4,0.4V379.8L360.112,322l69.384,39.048   c0.944-2.544,2.296-4.864,3.952-6.952l-69.368-39.032V199.52H364.088z M356.088,315.088L256,372.88l-100.08-57.792v-115.56   L256,141.736l100.088,57.792V315.088z"/>
</g>
    <g>
	<path style="fill:#DB2B42;" d="M443.568,346.264c-4.024,1.696-7.44,4.456-10.112,7.832c-1.656,2.088-3,4.408-3.952,6.952   c-1.04,2.8-1.688,5.792-1.688,8.952c0,1.52,0.192,2.992,0.448,4.44c1.216,6.984,5.192,13.008,10.824,16.848   c4.128,2.816,9.112,4.472,14.48,4.472c14.224,0,25.752-11.528,25.752-25.752c0-10.672-6.496-19.832-15.752-23.736   c-3.072-1.296-6.456-2.016-10-2.016C450.016,344.248,446.64,344.968,443.568,346.264z"/>
        <path style="fill:#DB2B42;" d="M68.432,166.544c3.904-1.648,7.232-4.304,9.872-7.536c1.688-2.072,3.096-4.36,4.08-6.896   c1.128-2.896,1.8-6.016,1.8-9.304c0-0.936-0.176-1.816-0.272-2.728c-0.76-7.112-4.36-13.312-9.704-17.488   c-4.368-3.416-9.8-5.536-15.776-5.536c-14.224,0-25.752,11.528-25.752,25.752c0,10.672,6.496,19.832,15.752,23.736   c3.072,1.296,6.456,2.016,10,2.016C61.984,168.56,65.36,167.84,68.432,166.544z"/>
        <path style="fill:#DB2B42;" d="M428.088,140.08c-0.096,0.912-0.272,1.792-0.272,2.728c0,3.288,0.672,6.408,1.8,9.304   c0.984,2.536,2.392,4.824,4.08,6.896c2.64,3.232,5.968,5.896,9.872,7.536c3.072,1.296,6.456,2.016,10,2.016s6.928-0.72,10-2.016   c9.256-3.904,15.752-13.064,15.752-23.736c0-14.224-11.528-25.752-25.752-25.752c-5.976,0-11.408,2.12-15.776,5.536   C432.44,126.768,428.848,132.968,428.088,140.08z"/>
        <path style="fill:#DB2B42;" d="M83.744,374.44c0.256-1.448,0.448-2.92,0.448-4.44c0-3.16-0.648-6.152-1.688-8.952   c-0.944-2.544-2.296-4.864-3.952-6.952c-2.672-3.376-6.088-6.136-10.112-7.832c-3.072-1.296-6.448-2.016-10-2.016   s-6.928,0.72-10,2.016c-9.256,3.904-15.752,13.064-15.752,23.736c0,14.224,11.528,25.752,25.752,25.752   c5.376,0,10.352-1.656,14.48-4.464C78.552,387.448,82.52,381.424,83.744,374.44z"/>
        <circle style="fill:#DB2B42;" cx="256" cy="256" r="25.752"/>
        <path style="fill:#DB2B42;" d="M204.952,256.032c0,28.144,22.896,51.04,51.048,51.04c28.144,0,51.04-22.896,51.04-51.04   s-22.896-51.04-51.04-51.04S204.952,227.896,204.952,256.032z M299.04,256.032c0,23.736-19.304,43.04-43.04,43.04   s-43.048-19.304-43.048-43.04s19.312-43.04,43.048-43.04S299.04,232.296,299.04,256.032z"/>
        <path style="fill:#DB2B42;" d="M243.328,48.048c2.648,1.504,5.544,2.568,8.672,3.056c1.312,0.208,2.632,0.4,4,0.4s2.688-0.2,4-0.4   c3.12-0.488,6.024-1.552,8.664-3.056c6.016-3.432,10.496-9.152,12.224-16.032c0.504-2.016,0.856-4.088,0.856-6.256   C281.752,11.528,270.224,0,256,0c-14.224,0-25.752,11.528-25.752,25.752c0,2.168,0.352,4.248,0.856,6.256   C232.832,38.896,237.312,44.616,243.328,48.048z"/>
        <path style="fill:#DB2B42;" d="M270.888,465.296c-3.168-2.256-6.872-3.768-10.888-4.4c-1.312-0.208-2.632-0.4-4-0.4   s-2.688,0.2-4,0.4c-4.016,0.632-7.72,2.136-10.888,4.4c-5.544,3.944-9.392,10.024-10.472,17.048c-0.2,1.28-0.392,2.568-0.392,3.904   C230.248,500.472,241.776,512,256,512c14.224,0,25.752-11.528,25.752-25.752c0-1.336-0.2-2.616-0.392-3.904   C280.28,475.328,276.432,469.248,270.888,465.296z"/>
</g>
    <g>
</g>
    <g>
</g>
    <g>
</g>
    <g>
</g>
    <g>
</g>
    <g>
</g>
    <g>
</g>
    <g>
</g>
    <g>
</g>
    <g>
</g>
    <g>
</g>
    <g>
</g>
    <g>
</g>
    <g>
</g>
    <g>
</g>
</svg>